<mxfile host="app.diagrams.net" agent="Mozilla/5.0 (Windows NT 10.0; Win64; x64) AppleWebKit/537.36 (KHTML, like Gecko) Chrome/131.0.0.0 Safari/537.36 Edg/131.0.0.0" version="25.0.0">
  <diagram id="C5RBs43oDa-KdzZeNtuy" name="Page-1">
    <mxGraphModel dx="2479" dy="2135" grid="1" gridSize="10" guides="1" tooltips="1" connect="1" arrows="1" fold="1" page="1" pageScale="1" pageWidth="827" pageHeight="1169" math="0" shadow="0">
      <root>
        <mxCell id="WIyWlLk6GJQsqaUBKTNV-0" />
        <mxCell id="WIyWlLk6GJQsqaUBKTNV-1" parent="WIyWlLk6GJQsqaUBKTNV-0" />
        <mxCell id="K0ObgiceF9-cRL7YlSrj-2" value="My&lt;span style=&quot;background-color: initial;&quot;&gt;Application&lt;/span&gt;" style="swimlane;fontStyle=0;childLayout=stackLayout;horizontal=1;startSize=30;horizontalStack=0;resizeParent=1;resizeParentMax=0;resizeLast=0;collapsible=1;marginBottom=0;whiteSpace=wrap;html=1;" vertex="1" parent="WIyWlLk6GJQsqaUBKTNV-1">
          <mxGeometry x="-770" y="200" width="140" height="130" as="geometry" />
        </mxCell>
        <mxCell id="K0ObgiceF9-cRL7YlSrj-3" value="维护一个全局播放列表" style="text;strokeColor=none;fillColor=none;align=left;verticalAlign=middle;spacingLeft=4;spacingRight=4;overflow=hidden;points=[[0,0.5],[1,0.5]];portConstraint=eastwest;rotatable=0;whiteSpace=wrap;html=1;" vertex="1" parent="K0ObgiceF9-cRL7YlSrj-2">
          <mxGeometry y="30" width="140" height="30" as="geometry" />
        </mxCell>
        <mxCell id="K0ObgiceF9-cRL7YlSrj-70" value="写了很多公共方法静态，任何位置都可以调用来获取音乐列表" style="text;html=1;align=center;verticalAlign=middle;whiteSpace=wrap;rounded=0;" vertex="1" parent="K0ObgiceF9-cRL7YlSrj-2">
          <mxGeometry y="60" width="140" height="70" as="geometry" />
        </mxCell>
        <mxCell id="K0ObgiceF9-cRL7YlSrj-6" value="MainAct&lt;span style=&quot;background-color: initial;&quot;&gt;ivity&lt;/span&gt;&lt;div&gt;主页Activity&lt;/div&gt;" style="swimlane;fontStyle=0;childLayout=stackLayout;horizontal=1;startSize=30;horizontalStack=0;resizeParent=1;resizeParentMax=0;resizeLast=0;collapsible=1;marginBottom=0;whiteSpace=wrap;html=1;" vertex="1" parent="WIyWlLk6GJQsqaUBKTNV-1">
          <mxGeometry x="-210" y="-160" width="140" height="180" as="geometry" />
        </mxCell>
        <mxCell id="K0ObgiceF9-cRL7YlSrj-8" value="当前播放的音乐栏" style="text;strokeColor=none;fillColor=none;align=left;verticalAlign=middle;spacingLeft=4;spacingRight=4;overflow=hidden;points=[[0,0.5],[1,0.5]];portConstraint=eastwest;rotatable=0;whiteSpace=wrap;html=1;" vertex="1" parent="K0ObgiceF9-cRL7YlSrj-6">
          <mxGeometry y="30" width="140" height="30" as="geometry" />
        </mxCell>
        <mxCell id="K0ObgiceF9-cRL7YlSrj-7" value="导航栏（通过导航栏跳转到三个子fragment" style="text;strokeColor=none;fillColor=none;align=left;verticalAlign=middle;spacingLeft=4;spacingRight=4;overflow=hidden;points=[[0,0.5],[1,0.5]];portConstraint=eastwest;rotatable=0;whiteSpace=wrap;html=1;" vertex="1" parent="K0ObgiceF9-cRL7YlSrj-6">
          <mxGeometry y="60" width="140" height="60" as="geometry" />
        </mxCell>
        <mxCell id="K0ObgiceF9-cRL7YlSrj-73" value="播放列表ui，可以查看当前即将播放的音乐列表" style="text;html=1;align=center;verticalAlign=middle;whiteSpace=wrap;rounded=0;" vertex="1" parent="K0ObgiceF9-cRL7YlSrj-6">
          <mxGeometry y="120" width="140" height="60" as="geometry" />
        </mxCell>
        <mxCell id="K0ObgiceF9-cRL7YlSrj-10" value="SettingActivity&lt;div&gt;设置Activity&lt;/div&gt;" style="swimlane;fontStyle=0;childLayout=stackLayout;horizontal=1;startSize=30;horizontalStack=0;resizeParent=1;resizeParentMax=0;resizeLast=0;collapsible=1;marginBottom=0;whiteSpace=wrap;html=1;" vertex="1" parent="WIyWlLk6GJQsqaUBKTNV-1">
          <mxGeometry x="22" y="-49" width="140" height="60" as="geometry" />
        </mxCell>
        <mxCell id="K0ObgiceF9-cRL7YlSrj-11" value="退出登录" style="text;strokeColor=none;fillColor=none;align=left;verticalAlign=middle;spacingLeft=4;spacingRight=4;overflow=hidden;points=[[0,0.5],[1,0.5]];portConstraint=eastwest;rotatable=0;whiteSpace=wrap;html=1;" vertex="1" parent="K0ObgiceF9-cRL7YlSrj-10">
          <mxGeometry y="30" width="140" height="30" as="geometry" />
        </mxCell>
        <mxCell id="K0ObgiceF9-cRL7YlSrj-14" value="HomeFragment&lt;div&gt;主页fragment&lt;/div&gt;" style="swimlane;fontStyle=0;childLayout=stackLayout;horizontal=1;startSize=30;horizontalStack=0;resizeParent=1;resizeParentMax=0;resizeLast=0;collapsible=1;marginBottom=0;whiteSpace=wrap;html=1;" vertex="1" parent="WIyWlLk6GJQsqaUBKTNV-1">
          <mxGeometry x="-420" y="130" width="140" height="90" as="geometry" />
        </mxCell>
        <mxCell id="K0ObgiceF9-cRL7YlSrj-15" value="搜索框" style="text;strokeColor=none;fillColor=none;align=left;verticalAlign=middle;spacingLeft=4;spacingRight=4;overflow=hidden;points=[[0,0.5],[1,0.5]];portConstraint=eastwest;rotatable=0;whiteSpace=wrap;html=1;" vertex="1" parent="K0ObgiceF9-cRL7YlSrj-14">
          <mxGeometry y="30" width="140" height="30" as="geometry" />
        </mxCell>
        <mxCell id="K0ObgiceF9-cRL7YlSrj-42" value="默认展示推送歌单" style="text;html=1;align=left;verticalAlign=middle;whiteSpace=wrap;rounded=0;" vertex="1" parent="K0ObgiceF9-cRL7YlSrj-14">
          <mxGeometry y="60" width="140" height="30" as="geometry" />
        </mxCell>
        <mxCell id="K0ObgiceF9-cRL7YlSrj-18" value="ChatFragment&lt;div&gt;聊天界面（未实现&lt;span style=&quot;background-color: initial;&quot;&gt;）&lt;/span&gt;&lt;/div&gt;" style="swimlane;fontStyle=0;childLayout=stackLayout;horizontal=1;startSize=30;horizontalStack=0;resizeParent=1;resizeParentMax=0;resizeLast=0;collapsible=1;marginBottom=0;whiteSpace=wrap;html=1;" vertex="1" parent="WIyWlLk6GJQsqaUBKTNV-1">
          <mxGeometry x="-210" y="130" width="140" height="60" as="geometry" />
        </mxCell>
        <mxCell id="K0ObgiceF9-cRL7YlSrj-19" value="可以跟其他用户发信息" style="text;strokeColor=none;fillColor=none;align=left;verticalAlign=middle;spacingLeft=4;spacingRight=4;overflow=hidden;points=[[0,0.5],[1,0.5]];portConstraint=eastwest;rotatable=0;whiteSpace=wrap;html=1;" vertex="1" parent="K0ObgiceF9-cRL7YlSrj-18">
          <mxGeometry y="30" width="140" height="30" as="geometry" />
        </mxCell>
        <mxCell id="K0ObgiceF9-cRL7YlSrj-22" value="UserPageFragment&lt;div&gt;用户界面&lt;/div&gt;" style="swimlane;fontStyle=0;childLayout=stackLayout;horizontal=1;startSize=30;horizontalStack=0;resizeParent=1;resizeParentMax=0;resizeLast=0;collapsible=1;marginBottom=0;whiteSpace=wrap;html=1;" vertex="1" parent="WIyWlLk6GJQsqaUBKTNV-1">
          <mxGeometry x="-20" y="130" width="140" height="90" as="geometry" />
        </mxCell>
        <mxCell id="K0ObgiceF9-cRL7YlSrj-23" value="用户信息（头像、昵称）" style="text;strokeColor=none;fillColor=none;align=left;verticalAlign=middle;spacingLeft=4;spacingRight=4;overflow=hidden;points=[[0,0.5],[1,0.5]];portConstraint=eastwest;rotatable=0;whiteSpace=wrap;html=1;" vertex="1" parent="K0ObgiceF9-cRL7YlSrj-22">
          <mxGeometry y="30" width="140" height="30" as="geometry" />
        </mxCell>
        <mxCell id="K0ObgiceF9-cRL7YlSrj-24" value="用户歌单" style="text;strokeColor=none;fillColor=none;align=left;verticalAlign=middle;spacingLeft=4;spacingRight=4;overflow=hidden;points=[[0,0.5],[1,0.5]];portConstraint=eastwest;rotatable=0;whiteSpace=wrap;html=1;" vertex="1" parent="K0ObgiceF9-cRL7YlSrj-22">
          <mxGeometry y="60" width="140" height="30" as="geometry" />
        </mxCell>
        <mxCell id="K0ObgiceF9-cRL7YlSrj-26" value="HotFragment&lt;div&gt;搜索榜单&lt;/div&gt;" style="swimlane;fontStyle=0;childLayout=stackLayout;horizontal=1;startSize=30;horizontalStack=0;resizeParent=1;resizeParentMax=0;resizeLast=0;collapsible=1;marginBottom=0;whiteSpace=wrap;html=1;" vertex="1" parent="WIyWlLk6GJQsqaUBKTNV-1">
          <mxGeometry x="-580" y="290" width="140" height="80" as="geometry" />
        </mxCell>
        <mxCell id="K0ObgiceF9-cRL7YlSrj-27" value="聚焦到搜索框的时候弹出到搜索框下" style="text;strokeColor=none;fillColor=none;align=left;verticalAlign=middle;spacingLeft=4;spacingRight=4;overflow=hidden;points=[[0,0.5],[1,0.5]];portConstraint=eastwest;rotatable=0;whiteSpace=wrap;html=1;" vertex="1" parent="K0ObgiceF9-cRL7YlSrj-26">
          <mxGeometry y="30" width="140" height="50" as="geometry" />
        </mxCell>
        <mxCell id="K0ObgiceF9-cRL7YlSrj-30" value="SearchResultFragment&lt;div&gt;搜索结果（歌曲列表）&lt;/div&gt;" style="swimlane;fontStyle=0;childLayout=stackLayout;horizontal=1;startSize=30;horizontalStack=0;resizeParent=1;resizeParentMax=0;resizeLast=0;collapsible=1;marginBottom=0;whiteSpace=wrap;html=1;" vertex="1" parent="WIyWlLk6GJQsqaUBKTNV-1">
          <mxGeometry x="-420" y="290" width="140" height="90" as="geometry" />
        </mxCell>
        <mxCell id="K0ObgiceF9-cRL7YlSrj-31" value="可以播放音乐" style="text;strokeColor=none;fillColor=none;align=left;verticalAlign=middle;spacingLeft=4;spacingRight=4;overflow=hidden;points=[[0,0.5],[1,0.5]];portConstraint=eastwest;rotatable=0;whiteSpace=wrap;html=1;" vertex="1" parent="K0ObgiceF9-cRL7YlSrj-30">
          <mxGeometry y="30" width="140" height="30" as="geometry" />
        </mxCell>
        <mxCell id="K0ObgiceF9-cRL7YlSrj-32" value="音乐可以加入歌单" style="text;strokeColor=none;fillColor=none;align=left;verticalAlign=middle;spacingLeft=4;spacingRight=4;overflow=hidden;points=[[0,0.5],[1,0.5]];portConstraint=eastwest;rotatable=0;whiteSpace=wrap;html=1;" vertex="1" parent="K0ObgiceF9-cRL7YlSrj-30">
          <mxGeometry y="60" width="140" height="30" as="geometry" />
        </mxCell>
        <mxCell id="K0ObgiceF9-cRL7YlSrj-34" value="ContentFragment&lt;div&gt;推送&lt;/div&gt;" style="swimlane;fontStyle=0;childLayout=stackLayout;horizontal=1;startSize=30;horizontalStack=0;resizeParent=1;resizeParentMax=0;resizeLast=0;collapsible=1;marginBottom=0;whiteSpace=wrap;html=1;" vertex="1" parent="WIyWlLk6GJQsqaUBKTNV-1">
          <mxGeometry x="-260" y="290" width="140" height="110" as="geometry" />
        </mxCell>
        <mxCell id="K0ObgiceF9-cRL7YlSrj-35" value="会从服务器推送播放次数和收藏数量多的歌单，包含用户公开的歌单" style="text;strokeColor=none;fillColor=none;align=left;verticalAlign=middle;spacingLeft=4;spacingRight=4;overflow=hidden;points=[[0,0.5],[1,0.5]];portConstraint=eastwest;rotatable=0;whiteSpace=wrap;html=1;" vertex="1" parent="K0ObgiceF9-cRL7YlSrj-34">
          <mxGeometry y="30" width="140" height="80" as="geometry" />
        </mxCell>
        <mxCell id="K0ObgiceF9-cRL7YlSrj-38" value="PlayFragment&lt;div&gt;当前播放音乐的页面&lt;/div&gt;" style="swimlane;fontStyle=0;childLayout=stackLayout;horizontal=1;startSize=30;horizontalStack=0;resizeParent=1;resizeParentMax=0;resizeLast=0;collapsible=1;marginBottom=0;whiteSpace=wrap;html=1;" vertex="1" parent="WIyWlLk6GJQsqaUBKTNV-1">
          <mxGeometry x="-770" y="-20" width="140" height="140" as="geometry" />
        </mxCell>
        <mxCell id="K0ObgiceF9-cRL7YlSrj-39" value="包含一个旋转唱片展示歌曲图片" style="text;strokeColor=none;fillColor=none;align=left;verticalAlign=middle;spacingLeft=4;spacingRight=4;overflow=hidden;points=[[0,0.5],[1,0.5]];portConstraint=eastwest;rotatable=0;whiteSpace=wrap;html=1;" vertex="1" parent="K0ObgiceF9-cRL7YlSrj-38">
          <mxGeometry y="30" width="140" height="50" as="geometry" />
        </mxCell>
        <mxCell id="K0ObgiceF9-cRL7YlSrj-40" value="包含进度条" style="text;strokeColor=none;fillColor=none;align=left;verticalAlign=middle;spacingLeft=4;spacingRight=4;overflow=hidden;points=[[0,0.5],[1,0.5]];portConstraint=eastwest;rotatable=0;whiteSpace=wrap;html=1;" vertex="1" parent="K0ObgiceF9-cRL7YlSrj-38">
          <mxGeometry y="80" width="140" height="30" as="geometry" />
        </mxCell>
        <mxCell id="K0ObgiceF9-cRL7YlSrj-41" value="包含控制播放的按钮" style="text;strokeColor=none;fillColor=none;align=left;verticalAlign=middle;spacingLeft=4;spacingRight=4;overflow=hidden;points=[[0,0.5],[1,0.5]];portConstraint=eastwest;rotatable=0;whiteSpace=wrap;html=1;" vertex="1" parent="K0ObgiceF9-cRL7YlSrj-38">
          <mxGeometry y="110" width="140" height="30" as="geometry" />
        </mxCell>
        <mxCell id="K0ObgiceF9-cRL7YlSrj-43" value="PlayListMusicFragment&lt;div&gt;歌单包含的音乐&lt;/div&gt;" style="swimlane;fontStyle=0;childLayout=stackLayout;horizontal=1;startSize=30;horizontalStack=0;resizeParent=1;resizeParentMax=0;resizeLast=0;collapsible=1;marginBottom=0;whiteSpace=wrap;html=1;" vertex="1" parent="WIyWlLk6GJQsqaUBKTNV-1">
          <mxGeometry x="-20" y="350" width="140" height="70" as="geometry" />
        </mxCell>
        <mxCell id="K0ObgiceF9-cRL7YlSrj-44" value="歌单跳转到对应音乐的列表" style="text;strokeColor=none;fillColor=none;align=left;verticalAlign=middle;spacingLeft=4;spacingRight=4;overflow=hidden;points=[[0,0.5],[1,0.5]];portConstraint=eastwest;rotatable=0;whiteSpace=wrap;html=1;" vertex="1" parent="K0ObgiceF9-cRL7YlSrj-43">
          <mxGeometry y="30" width="140" height="40" as="geometry" />
        </mxCell>
        <mxCell id="K0ObgiceF9-cRL7YlSrj-47" value="LoginActivity&lt;div&gt;登录注册Activity&lt;/div&gt;" style="swimlane;fontStyle=0;childLayout=stackLayout;horizontal=1;startSize=30;horizontalStack=0;resizeParent=1;resizeParentMax=0;resizeLast=0;collapsible=1;marginBottom=0;whiteSpace=wrap;html=1;" vertex="1" parent="WIyWlLk6GJQsqaUBKTNV-1">
          <mxGeometry x="252" y="-60" width="140" height="90" as="geometry" />
        </mxCell>
        <mxCell id="K0ObgiceF9-cRL7YlSrj-48" value="登录" style="text;strokeColor=none;fillColor=none;align=left;verticalAlign=middle;spacingLeft=4;spacingRight=4;overflow=hidden;points=[[0,0.5],[1,0.5]];portConstraint=eastwest;rotatable=0;whiteSpace=wrap;html=1;" vertex="1" parent="K0ObgiceF9-cRL7YlSrj-47">
          <mxGeometry y="30" width="140" height="30" as="geometry" />
        </mxCell>
        <mxCell id="K0ObgiceF9-cRL7YlSrj-49" value="注册" style="text;strokeColor=none;fillColor=none;align=left;verticalAlign=middle;spacingLeft=4;spacingRight=4;overflow=hidden;points=[[0,0.5],[1,0.5]];portConstraint=eastwest;rotatable=0;whiteSpace=wrap;html=1;" vertex="1" parent="K0ObgiceF9-cRL7YlSrj-47">
          <mxGeometry y="60" width="140" height="30" as="geometry" />
        </mxCell>
        <mxCell id="K0ObgiceF9-cRL7YlSrj-52" value="" style="endArrow=classic;html=1;rounded=0;" edge="1" parent="WIyWlLk6GJQsqaUBKTNV-1">
          <mxGeometry width="50" height="50" relative="1" as="geometry">
            <mxPoint x="-214.15999999999997" y="40" as="sourcePoint" />
            <mxPoint x="-350" y="110" as="targetPoint" />
          </mxGeometry>
        </mxCell>
        <mxCell id="K0ObgiceF9-cRL7YlSrj-53" value="" style="endArrow=classic;html=1;rounded=0;" edge="1" parent="WIyWlLk6GJQsqaUBKTNV-1">
          <mxGeometry width="50" height="50" relative="1" as="geometry">
            <mxPoint x="410" y="-144" as="sourcePoint" />
            <mxPoint x="360" y="-144" as="targetPoint" />
          </mxGeometry>
        </mxCell>
        <mxCell id="K0ObgiceF9-cRL7YlSrj-54" value="表示跳转" style="text;html=1;align=center;verticalAlign=middle;whiteSpace=wrap;rounded=0;" vertex="1" parent="WIyWlLk6GJQsqaUBKTNV-1">
          <mxGeometry x="410" y="-160" width="60" height="30" as="geometry" />
        </mxCell>
        <mxCell id="K0ObgiceF9-cRL7YlSrj-55" value="" style="endArrow=classic;html=1;rounded=0;" edge="1" parent="WIyWlLk6GJQsqaUBKTNV-1">
          <mxGeometry width="50" height="50" relative="1" as="geometry">
            <mxPoint x="-430" y="220" as="sourcePoint" />
            <mxPoint x="-510" y="280" as="targetPoint" />
          </mxGeometry>
        </mxCell>
        <mxCell id="K0ObgiceF9-cRL7YlSrj-56" value="" style="endArrow=classic;html=1;rounded=0;" edge="1" parent="WIyWlLk6GJQsqaUBKTNV-1">
          <mxGeometry width="50" height="50" relative="1" as="geometry">
            <mxPoint x="-350.59000000000003" y="230" as="sourcePoint" />
            <mxPoint x="-350.59000000000003" y="280" as="targetPoint" />
          </mxGeometry>
        </mxCell>
        <mxCell id="K0ObgiceF9-cRL7YlSrj-57" value="" style="endArrow=classic;html=1;rounded=0;" edge="1" parent="WIyWlLk6GJQsqaUBKTNV-1">
          <mxGeometry width="50" height="50" relative="1" as="geometry">
            <mxPoint x="-270" y="220" as="sourcePoint" />
            <mxPoint x="-200" y="280" as="targetPoint" />
          </mxGeometry>
        </mxCell>
        <mxCell id="K0ObgiceF9-cRL7YlSrj-58" value="" style="endArrow=classic;html=1;rounded=0;" edge="1" parent="WIyWlLk6GJQsqaUBKTNV-1">
          <mxGeometry width="50" height="50" relative="1" as="geometry">
            <mxPoint x="-140" y="40" as="sourcePoint" />
            <mxPoint x="-140" y="110" as="targetPoint" />
          </mxGeometry>
        </mxCell>
        <mxCell id="K0ObgiceF9-cRL7YlSrj-59" value="" style="endArrow=classic;html=1;rounded=0;" edge="1" parent="WIyWlLk6GJQsqaUBKTNV-1">
          <mxGeometry width="50" height="50" relative="1" as="geometry">
            <mxPoint x="-70" y="40" as="sourcePoint" />
            <mxPoint x="50" y="110" as="targetPoint" />
          </mxGeometry>
        </mxCell>
        <mxCell id="K0ObgiceF9-cRL7YlSrj-60" value="" style="endArrow=classic;html=1;rounded=0;" edge="1" parent="WIyWlLk6GJQsqaUBKTNV-1">
          <mxGeometry width="50" height="50" relative="1" as="geometry">
            <mxPoint x="-230" y="-50" as="sourcePoint" />
            <mxPoint x="-590" y="40" as="targetPoint" />
          </mxGeometry>
        </mxCell>
        <mxCell id="K0ObgiceF9-cRL7YlSrj-63" value="" style="endArrow=classic;html=1;rounded=0;" edge="1" parent="WIyWlLk6GJQsqaUBKTNV-1">
          <mxGeometry width="50" height="50" relative="1" as="geometry">
            <mxPoint x="90" y="110" as="sourcePoint" />
            <mxPoint x="90" y="20" as="targetPoint" />
          </mxGeometry>
        </mxCell>
        <mxCell id="K0ObgiceF9-cRL7YlSrj-64" value="" style="endArrow=classic;html=1;rounded=0;" edge="1" parent="WIyWlLk6GJQsqaUBKTNV-1">
          <mxGeometry width="50" height="50" relative="1" as="geometry">
            <mxPoint x="130" y="120" as="sourcePoint" />
            <mxPoint x="320" y="50" as="targetPoint" />
          </mxGeometry>
        </mxCell>
        <mxCell id="K0ObgiceF9-cRL7YlSrj-65" value="" style="edgeStyle=elbowEdgeStyle;elbow=horizontal;endArrow=classic;html=1;curved=0;rounded=0;endSize=8;startSize=8;" edge="1" parent="WIyWlLk6GJQsqaUBKTNV-1">
          <mxGeometry width="50" height="50" relative="1" as="geometry">
            <mxPoint x="327" y="-72" as="sourcePoint" />
            <mxPoint x="-50" y="-92" as="targetPoint" />
            <Array as="points">
              <mxPoint x="330" y="-92" />
            </Array>
          </mxGeometry>
        </mxCell>
        <mxCell id="K0ObgiceF9-cRL7YlSrj-67" value="" style="endArrow=none;html=1;rounded=0;" edge="1" parent="WIyWlLk6GJQsqaUBKTNV-1">
          <mxGeometry width="50" height="50" relative="1" as="geometry">
            <mxPoint x="90" y="-60" as="sourcePoint" />
            <mxPoint x="90" y="-92" as="targetPoint" />
          </mxGeometry>
        </mxCell>
        <mxCell id="K0ObgiceF9-cRL7YlSrj-68" value="" style="endArrow=classic;html=1;rounded=0;" edge="1" parent="WIyWlLk6GJQsqaUBKTNV-1">
          <mxGeometry width="50" height="50" relative="1" as="geometry">
            <mxPoint x="49.40999999999997" y="240" as="sourcePoint" />
            <mxPoint x="49" y="340" as="targetPoint" />
          </mxGeometry>
        </mxCell>
        <mxCell id="K0ObgiceF9-cRL7YlSrj-69" value="MainActivity中&lt;div&gt;最顶部的视图&lt;/div&gt;&lt;div&gt;每个界面都可以调用并查看播放页面&lt;/div&gt;" style="text;html=1;align=center;verticalAlign=middle;whiteSpace=wrap;rounded=0;" vertex="1" parent="WIyWlLk6GJQsqaUBKTNV-1">
          <mxGeometry x="-800" y="-100" width="210" height="70" as="geometry" />
        </mxCell>
      </root>
    </mxGraphModel>
  </diagram>
</mxfile>
